# xmcd
#
# Track frame offsets:
#	150
#	10033
#	27940
#	48903
#	64604
#	79206
#	91450
#	109396
#	124864
#	137254
#	154819
#	168029
#	184416
#	198739
#	209978
#	223909
#	239724
#	253325
#	280867
#
# Disc length: 3977 seconds
#
# Revision: 3
# Processed by: cddbd v1.5.2PL0 Copyright (c) Steve Scherf et al.
# Submitted via: audiograbber 1.81.02
#
DISCID=220f8713
DTITLE=Various Artist - CDX Volume 189 - June 1998
DYEAR=1998
DGENRE=Country
TTITLE0=Steve Wariner and Garth Brooks - Burnin' The Roadhouse Down
TTITLE1=John Michael Mongomery - Cover You In Kisses
TTITLE2=Anita Cochran - Daddy Can You See Me (album version)
TTITLE3=Doug Stone - Gone Out Of My Mind
TTITLE4=Shane Stockton - Gonna Have To Fall
TTITLE5=Shana Petrone - Heaven Bound
TTITLE6=Sammy Kershaw - Honky Tonk America
TTITLE7=Tracy Byrd - I Wanna Feel That Way Again
TTITLE8=Neal McCoy - Love Happens Like That
TTITLE9=Gil Grand - Spilled Perfume
TTITLE10=Sara Evans - The Crying Game
TTITLE11=The Charlie Daniels Band - The Devil Went Down to Georgia
TTITLE12=Randy Travis - The Hole
TTITLE13=Chris Cummings - Til I See You Again (album version)
TTITLE14=Hal Ketchum - When Love Looks Back At You
TTITLE15=Lila McCann - Yippy Ky Yay
TTITLE16=Cledus T. Judd - Every Light In The House Is Blown
TTITLE17=Lacy Younger - Livin' On Memories
TTITLE18=Eddie Rabbit - Great Old American Town
EXTD=\n
EXTT0=
EXTT1=
EXTT2=
EXTT3=
EXTT4=
EXTT5=
EXTT6=
EXTT7=
EXTT8=
EXTT9=
EXTT10=
EXTT11=
EXTT12=
EXTT13=
EXTT14=
EXTT15=
EXTT16=
EXTT17=
EXTT18=
PLAYORDER=
